<svg width="91" height="152" viewBox="0 0 91 152" fill="none" xmlns="http://www.w3.org/2000/svg">
<path fill-rule="evenodd" clip-rule="evenodd" d="M10.6808 98.5857C13.8713 92.1648 17.9367 88.836 21.2451 88.0089L22.3465 92.4142C20.8113 92.798 17.6113 94.8425 14.7473 100.606C11.9185 106.299 9.53548 115.427 9.53548 129.414H4.99463C4.99463 114.945 7.45515 105.077 10.6808 98.5857Z" fill="#322727"/>
<path fill-rule="evenodd" clip-rule="evenodd" d="M74.3906 94.4899C70.1954 88.6756 65.6414 86.0546 62.2424 85.7783L61.8745 90.3042C63.4516 90.4324 66.9423 91.9275 70.7083 97.1469C74.4279 102.302 78.2681 110.919 80.55 124.719L85.0301 123.978C82.6696 109.703 78.6321 100.368 74.3906 94.4899Z" fill="#322727"/>
<path d="M3.37522 133.152C0.985239 125.291 7.25127 122.566 9.18751 123.587C11.1237 124.608 9.89599 127.928 10.1794 129.665C10.4628 131.401 12.6844 133.267 12.8477 135.171C13.011 137.075 13.434 138.196 10.8762 139.355C8.31833 140.514 4.9672 138.388 3.37522 133.152Z" fill="#36B37E"/>
<path d="M87.4206 127.371C88.4961 119.225 81.8696 117.559 80.1258 118.883C78.3821 120.206 80.135 123.281 80.1387 125.04C80.1424 126.799 78.2549 129.002 78.4045 130.908C78.554 132.814 78.3194 133.988 81.0322 134.714C83.7449 135.441 86.7043 132.797 87.4206 127.371Z" fill="#36B37E"/>
<path d="M18.4666 76.1289L70.2323 72.9564V125.479C70.2323 139.774 58.6441 151.362 44.3494 151.362C30.0547 151.362 18.4666 139.774 18.4666 125.479V76.1289Z" fill="#36B37E"/>
<path d="M36.3269 101.867C36.3269 103.956 34.6327 106.256 32.5428 106.256C30.453 106.256 28.7588 104.562 28.7588 102.472C28.7588 100.382 30.453 98.6879 32.5428 98.6879C34.6327 98.6879 36.3269 99.7767 36.3269 101.867Z" fill="#322727"/>
<path d="M46.8698 104.688C45.4073 106.18 42.5878 106.637 41.0949 105.175C39.6021 103.712 39.5775 101.317 41.0401 99.8237C42.5026 98.3309 44.8984 98.3063 46.3912 99.7689C47.8841 101.231 48.3323 103.195 46.8698 104.688Z" fill="#322727"/>
<path d="M52.7396 99.9789C54.3576 98.6561 57.2103 98.5122 58.533 100.13C59.8558 101.748 59.6165 104.132 57.9985 105.455C56.3805 106.778 53.9965 106.538 52.6738 104.92C51.351 103.302 51.1216 101.302 52.7396 99.9789Z" fill="#322727"/>
<path d="M10.5177 33.7745C10.7462 31.0044 13.177 28.944 15.9471 29.1725C16.6761 29.2326 17.2183 29.8723 17.1582 30.6013L16.1474 42.8578C16.0786 43.6909 15.3476 44.3106 14.5144 44.2419L13.911 44.1921C11.5783 43.9997 9.84322 41.9527 10.0356 39.62L10.5177 33.7745Z" fill="#322727"/>
<path d="M79.0119 39.8477C78.8369 42.6218 76.4463 44.7287 73.6723 44.5537C72.9423 44.5076 72.3878 43.8785 72.4339 43.1485L73.2081 30.8748C73.2608 30.0405 73.9797 29.4068 74.814 29.4594L75.4183 29.4976C77.7543 29.6449 79.5285 31.6581 79.3812 33.9941L79.0119 39.8477Z" fill="#322727"/>
<path fill-rule="evenodd" clip-rule="evenodd" d="M5.94899 33.8267C7.81262 35.2995 10.5485 36.1754 14.5307 36.1754V37.689C10.3394 37.689 7.22892 36.7674 5.01051 35.0143C2.78598 33.2563 1.55999 30.7427 0.978936 27.7685C0.400031 24.8053 0.450229 21.3336 0.814683 17.5747C1.17958 13.8112 1.86558 9.70712 2.58375 5.47369L4.07604 5.72685C3.35628 9.96969 2.68003 14.0202 2.32124 17.7208C1.962 21.4259 1.92707 24.7276 2.46447 27.4783C2.99972 30.218 4.09147 32.3588 5.94899 33.8267Z" fill="#322727"/>
<path d="M7.56809 3.1786C7.56809 5.26847 5.87392 7.56809 3.78405 7.56809C1.69418 7.56809 0 5.87392 0 3.78405C0 1.69418 1.69418 0 3.78405 0C5.87392 0 7.56809 1.08873 7.56809 3.1786Z" fill="#36B37E"/>
<path fill-rule="evenodd" clip-rule="evenodd" d="M84.5652 35.3403C82.7015 36.8131 79.9657 37.689 75.9834 37.689V39.2026C80.1748 39.2026 83.2852 38.281 85.5037 36.5279C87.7282 34.7699 88.9542 32.2563 89.5352 29.2821C90.1141 26.319 90.0639 22.8472 89.6995 19.0883C89.3346 15.3248 88.6486 11.2207 87.9304 6.9873L86.4381 7.24046C87.1579 11.4833 87.8341 15.5338 88.1929 19.2344C88.5522 22.9395 88.5871 26.2412 88.0497 28.9919C87.5144 31.7316 86.4227 33.8724 84.5652 35.3403Z" fill="#322727"/>
<path d="M82.9458 4.69227C82.9458 6.78214 84.64 9.08176 86.7299 9.08176C88.8197 9.08176 90.5139 7.38759 90.5139 5.29772C90.5139 3.20785 88.8197 1.51367 86.7299 1.51367C84.64 1.51367 82.9458 2.6024 82.9458 4.69227Z" fill="#36B37E"/>
<path d="M74.7725 38.6194C74.7725 55.673 60.8802 69.4977 43.7433 69.4977C26.6063 69.4977 12.7141 55.673 12.7141 38.6194C12.7141 21.5659 26.6063 7.74121 43.7433 7.74121C61.486 5.99314 76.1587 17.5653 74.7725 38.6194Z" fill="#36B37E"/>
<path d="M26.8309 29.8267C26.8942 28.6933 27.8643 27.8259 28.9977 27.8892C30.1311 27.9525 30.9986 28.9226 30.9353 30.056L30.5568 36.8327C30.4935 37.9661 29.5234 38.8336 28.39 38.7703C27.2566 38.7069 26.3891 37.7368 26.4524 36.6034L26.8309 29.8267Z" fill="#322727"/>
<path d="M43.6891 29.9059C43.7016 28.7708 44.6318 27.8607 45.7669 27.8732C46.902 27.8856 47.8121 28.8159 47.7997 29.9509L47.7253 36.7378C47.7128 37.8729 46.7826 38.783 45.6475 38.7706C44.5124 38.7581 43.6023 37.8279 43.6148 36.6928L43.6891 29.9059Z" fill="#322727"/>
<path fill-rule="evenodd" clip-rule="evenodd" d="M33.2236 51.4362C33.4055 51.0599 33.8581 50.9023 34.2344 51.0842C35.3897 51.6429 36.1914 51.9027 36.9459 51.9164C37.687 51.9298 38.4765 51.7062 39.5998 51.0997C39.9676 50.9011 40.4268 51.0382 40.6253 51.406C40.8239 51.7738 40.6868 52.2329 40.319 52.4315C39.0778 53.1017 38.0224 53.4497 36.9185 53.4298C35.828 53.41 34.7847 53.0316 33.5755 52.4469C33.1992 52.265 33.0416 51.8125 33.2236 51.4362Z" fill="#322727"/>
</svg>
