<svg width="91" height="152" viewBox="0 0 91 152" fill="none" xmlns="http://www.w3.org/2000/svg">
<path fill-rule="evenodd" clip-rule="evenodd" d="M10.6808 98.5857C13.8713 92.1648 17.9367 88.836 21.2451 88.0089L22.3465 92.4142C20.8113 92.798 17.6113 94.8425 14.7473 100.606C11.9185 106.299 9.53548 115.427 9.53548 129.414H4.99463C4.99463 114.945 7.45515 105.077 10.6808 98.5857Z" fill="#322727"/>
<path fill-rule="evenodd" clip-rule="evenodd" d="M74.3904 94.4899C70.1951 88.6756 65.6412 86.0546 62.2421 85.7783L61.8742 90.3042C63.4514 90.4324 66.9421 91.9275 70.708 97.1469C74.4277 102.302 78.2679 110.919 80.5498 124.719L85.0298 123.978C82.6694 109.703 78.6319 100.368 74.3904 94.4899Z" fill="#322727"/>
<path d="M3.37546 133.152C0.985483 125.291 7.25152 122.566 9.18775 123.587C11.124 124.608 9.89623 127.928 10.1796 129.665C10.463 131.401 12.6846 133.267 12.8479 135.171C13.0113 137.075 13.4343 138.196 10.8764 139.355C8.31857 140.514 4.96744 138.388 3.37546 133.152Z" fill="#36B37E"/>
<path d="M87.4206 127.371C88.4961 119.225 81.8696 117.559 80.1258 118.883C78.3821 120.206 80.135 123.281 80.1387 125.04C80.1424 126.799 78.2549 129.002 78.4045 130.908C78.554 132.814 78.3194 133.988 81.0322 134.714C83.7449 135.441 86.7043 132.797 87.4206 127.371Z" fill="#36B37E"/>
<path d="M18.4668 76.1289L70.2325 72.9564V125.479C70.2325 139.774 58.6444 151.362 44.3497 151.362C30.055 151.362 18.4668 139.774 18.4668 125.479V76.1289Z" fill="#36B37E"/>
<path d="M36.3269 101.867C36.3269 103.956 34.6327 106.256 32.5428 106.256C30.453 106.256 28.7588 104.562 28.7588 102.472C28.7588 100.382 30.453 98.6879 32.5428 98.6879C34.6327 98.6879 36.3269 99.7767 36.3269 101.867Z" fill="#322727"/>
<path d="M46.87 104.688C45.4075 106.18 42.588 106.637 41.0952 105.175C39.6023 103.712 39.5778 101.317 41.0403 99.8237C42.5029 98.3309 44.8987 98.3063 46.3915 99.7689C47.8843 101.231 48.3326 103.195 46.87 104.688Z" fill="#322727"/>
<path d="M52.7396 99.9789C54.3576 98.6561 57.2103 98.5122 58.533 100.13C59.8558 101.748 59.6165 104.132 57.9985 105.455C56.3805 106.778 53.9965 106.538 52.6738 104.92C51.351 103.302 51.1216 101.302 52.7396 99.9789Z" fill="#322727"/>
<path d="M10.518 33.7745C10.7464 31.0044 13.1773 28.944 15.9474 29.1725C16.6764 29.2326 17.2186 29.8723 17.1585 30.6013L16.1476 42.8578C16.0789 43.6909 15.3478 44.3106 14.5147 44.2419L13.9113 44.1921C11.5786 43.9997 9.84347 41.9527 10.0359 39.62L10.518 33.7745Z" fill="#322727"/>
<path d="M79.0122 39.8477C78.8372 42.6218 76.4465 44.7287 73.6725 44.5537C72.9425 44.5076 72.3881 43.8785 72.4341 43.1485L73.2084 30.8748C73.261 30.0405 73.98 29.4068 74.8143 29.4594L75.4185 29.4976C77.7545 29.6449 79.5288 31.6581 79.3814 33.9941L79.0122 39.8477Z" fill="#322727"/>
<path d="M74.7722 38.6194C74.7722 55.673 60.88 69.4977 43.743 69.4977C26.6061 69.4977 12.7139 55.673 12.7139 38.6194C12.7139 21.5659 26.6061 7.74121 43.743 7.74121C61.4857 5.99314 76.1584 17.5653 74.7722 38.6194Z" fill="#36B37E"/>
<path d="M26.8312 29.8267C26.8945 28.6933 27.8646 27.8259 28.998 27.8892C30.1314 27.9525 30.9988 28.9226 30.9355 30.056L30.557 36.8327C30.4937 37.9661 29.5236 38.8336 28.3902 38.7703C27.2568 38.7069 26.3894 37.7368 26.4527 36.6034L26.8312 29.8267Z" fill="#322727"/>
<path d="M43.6894 29.9059C43.7018 28.7708 44.6321 27.8607 45.7672 27.8732C46.9023 27.8856 47.8123 28.8159 47.7999 29.9509L47.7255 36.7378C47.7131 37.8729 46.7828 38.783 45.6477 38.7706C44.5127 38.7581 43.6026 37.8279 43.615 36.6928L43.6894 29.9059Z" fill="#322727"/>
</svg>
