<svg width="91" height="152" viewBox="0 0 91 152" fill="none" xmlns="http://www.w3.org/2000/svg">
<path fill-rule="evenodd" clip-rule="evenodd" d="M10.6808 98.5856C13.8713 92.1648 17.9367 88.836 21.2451 88.0089L22.3465 92.4142C20.8113 92.7979 17.6113 94.8425 14.7473 100.606C11.9185 106.299 9.53548 115.427 9.53548 129.414H4.99463C4.99463 114.945 7.45515 105.077 10.6808 98.5856Z" fill="#322727"/>
<path fill-rule="evenodd" clip-rule="evenodd" d="M74.3906 94.4899C70.1954 88.6756 65.6414 86.0546 62.2424 85.7783L61.8745 90.3043C63.4516 90.4325 66.9423 91.9276 70.7083 97.1469C74.4279 102.302 78.2681 110.919 80.55 124.719L85.0301 123.978C82.6696 109.703 78.6321 100.368 74.3906 94.4899Z" fill="#322727"/>
<path d="M3.37522 133.152C0.985239 125.291 7.25127 122.566 9.18751 123.587C11.1237 124.608 9.89599 127.928 10.1794 129.665C10.4628 131.401 12.6844 133.267 12.8477 135.171C13.011 137.075 13.434 138.196 10.8762 139.355C8.31833 140.514 4.9672 138.388 3.37522 133.152Z" fill="#00B8D9"/>
<path d="M87.4207 127.371C88.4962 119.225 81.8697 117.559 80.126 118.882C78.3822 120.206 80.1351 123.281 80.1388 125.04C80.1425 126.799 78.255 129.002 78.4046 130.908C78.5541 132.814 78.3196 133.988 81.0323 134.714C83.745 135.441 86.7044 132.797 87.4207 127.371Z" fill="#00B8D9"/>
<path d="M18.4666 76.1289L70.2323 72.9564V125.479C70.2323 139.774 58.6441 151.362 44.3494 151.362C30.0547 151.362 18.4666 139.774 18.4666 125.479V76.1289Z" fill="#00B8D9"/>
<path d="M36.327 101.867C36.327 103.956 34.6328 106.256 32.543 106.256C30.4531 106.256 28.7589 104.562 28.7589 102.472C28.7589 100.382 30.4531 98.6879 32.543 98.6879C34.6328 98.6879 36.327 99.7766 36.327 101.867Z" fill="#322727"/>
<path d="M46.8699 104.688C45.4074 106.18 42.5879 106.637 41.0951 105.175C39.6022 103.712 39.5777 101.317 41.0402 99.8237C42.5027 98.3309 44.8985 98.3063 46.3914 99.7689C47.8842 101.231 48.3325 103.195 46.8699 104.688Z" fill="#322727"/>
<path d="M52.7399 99.9789C54.3579 98.6561 57.2105 98.5122 58.5333 100.13C59.856 101.748 59.6167 104.132 57.9987 105.455C56.3807 106.778 53.9968 106.538 52.674 104.92C51.3513 103.302 51.1219 101.302 52.7399 99.9789Z" fill="#322727"/>
<path fill-rule="evenodd" clip-rule="evenodd" d="M13.949 36.8268C15.8126 38.2995 18.5485 39.1754 22.5307 39.1754V40.689C18.3394 40.689 15.2289 39.7674 13.0105 38.0143C10.786 36.2563 9.55999 33.7427 8.97894 30.7686C8.40003 27.8054 8.45023 24.3336 8.81468 20.5747C9.17958 16.8112 9.86558 12.7071 10.5837 8.47372L12.076 8.72687C11.3563 12.9697 10.68 17.0202 10.3212 20.7208C9.962 24.4259 9.92707 27.7276 10.4645 30.4783C10.9997 33.2181 12.0915 35.3588 13.949 36.8268Z" fill="#322727"/>
<path d="M15.5681 6.17862C15.5681 8.26849 13.8739 10.5681 11.784 10.5681C9.69418 10.5681 8 8.87394 8 6.78407C8 4.6942 9.69418 3.00002 11.784 3.00002C13.8739 3.00002 15.5681 4.08875 15.5681 6.17862Z" fill="#00B8D9"/>
<path fill-rule="evenodd" clip-rule="evenodd" d="M70.5652 35.3403C68.7015 36.8131 65.9657 37.689 61.9834 37.689V39.2026C66.1748 39.2026 69.2852 38.281 71.5037 36.5279C73.7282 34.7699 74.9542 32.2563 75.5352 29.2821C76.1141 26.3189 76.0639 22.8472 75.6995 19.0883C75.3346 15.3248 74.6486 11.2207 73.9304 6.98729L72.4381 7.24045C73.1579 11.4833 73.8341 15.5338 74.1929 19.2344C74.5522 22.9395 74.5871 26.2412 74.0497 28.9919C73.5144 31.7316 72.4227 33.8724 70.5652 35.3403Z" fill="#322727"/>
<path d="M68.9458 4.69229C68.9458 6.78216 70.64 9.08178 72.7299 9.08178C74.8197 9.08178 76.5139 7.3876 76.5139 5.29773C76.5139 3.20786 74.8197 1.51369 72.7299 1.51369C70.64 1.51369 68.9458 2.60241 68.9458 4.69229Z" fill="#00B8D9"/>
<path d="M34.8855 3.58286C35.798 1.38952 38.7767 1.07657 40.1251 3.03238L76.2688 55.4548C77.5917 57.3735 76.3172 60.002 73.9915 60.1515L14.4442 63.9799C12.2254 64.1226 10.6278 61.8865 11.4819 59.8337L34.8855 3.58286Z" fill="#00B8D9"/>
<path d="M29.4933 33.0522C29.5566 31.9188 30.5267 31.0513 31.6601 31.1146C32.7935 31.1779 33.6609 32.1481 33.5976 33.2814L33.2191 40.0582C33.1558 41.1916 32.1857 42.059 31.0523 41.9957C29.9189 41.9324 29.0515 40.9623 29.1148 39.8289L29.4933 33.0522Z" fill="#322727"/>
<path d="M44.3514 33.1314C44.3638 31.9963 45.2941 31.0862 46.4292 31.0986C47.5642 31.1111 48.4743 32.0413 48.4619 33.1764L48.3875 39.9633C48.3751 41.0984 47.4448 42.0085 46.3097 41.996C45.1746 41.9836 44.2646 41.0533 44.277 39.9183L44.3514 33.1314Z" fill="#322727"/>
<path fill-rule="evenodd" clip-rule="evenodd" d="M35.8856 50.6616C36.0675 50.2853 36.5201 50.1278 36.8964 50.3097C38.0517 50.8683 38.8534 51.1282 39.6079 51.1419C40.3489 51.1553 41.1385 50.9317 42.2618 50.3251C42.6296 50.1265 43.0887 50.2637 43.2873 50.6315C43.4859 50.9993 43.3487 51.4584 42.981 51.657C41.7398 52.3271 40.6844 52.6752 39.5805 52.6552C38.49 52.6355 37.4467 52.257 36.2375 51.6724C35.8612 51.4905 35.7036 51.0379 35.8856 50.6616Z" fill="#322727"/>
</svg>
