<svg width="91" height="152" viewBox="0 0 91 152" fill="none" xmlns="http://www.w3.org/2000/svg">
<path fill-rule="evenodd" clip-rule="evenodd" d="M10.6808 98.5856C13.8713 92.1648 17.9367 88.836 21.2451 88.0089L22.3465 92.4142C20.8113 92.7979 17.6113 94.8425 14.7473 100.606C11.9185 106.299 9.53548 115.427 9.53548 129.414H4.99463C4.99463 114.945 7.45515 105.077 10.6808 98.5856Z" fill="#322727"/>
<path fill-rule="evenodd" clip-rule="evenodd" d="M74.3906 94.4899C70.1954 88.6756 65.6414 86.0546 62.2424 85.7783L61.8745 90.3043C63.4516 90.4325 66.9423 91.9276 70.7083 97.1469C74.4279 102.302 78.2681 110.919 80.55 124.719L85.0301 123.978C82.6696 109.703 78.6321 100.368 74.3906 94.4899Z" fill="#322727"/>
<path d="M3.37522 133.152C0.985239 125.291 7.25127 122.566 9.18751 123.587C11.1237 124.608 9.89599 127.928 10.1794 129.665C10.4628 131.401 12.6844 133.267 12.8477 135.171C13.011 137.075 13.434 138.196 10.8762 139.355C8.31833 140.514 4.9672 138.388 3.37522 133.152Z" fill="#36B37E"/>
<path d="M87.4207 127.371C88.4962 119.225 81.8697 117.559 80.126 118.882C78.3822 120.206 80.1351 123.281 80.1388 125.04C80.1425 126.799 78.255 129.002 78.4046 130.908C78.5541 132.814 78.3196 133.988 81.0323 134.714C83.745 135.441 86.7044 132.797 87.4207 127.371Z" fill="#36B37E"/>
<path d="M18.4666 76.1289L70.2323 72.9564V125.479C70.2323 139.774 58.6441 151.362 44.3494 151.362C30.0547 151.362 18.4666 139.774 18.4666 125.479V76.1289Z" fill="#36B37E"/>
<path d="M46.8699 104.688C45.4074 106.18 42.5879 106.637 41.0951 105.175C39.6022 103.712 39.5777 101.317 41.0402 99.8237C42.5027 98.3309 44.8985 98.3063 46.3914 99.7689C47.8842 101.231 48.3325 103.195 46.8699 104.688Z" fill="#322727"/>
<path d="M10.5178 33.7745C10.7463 31.0044 13.1771 28.944 15.9473 29.1725C16.6762 29.2326 17.2185 29.8723 17.1583 30.6012L16.1475 42.8578C16.0788 43.6909 15.3477 44.3106 14.5146 44.2419L13.9112 44.1921C11.5784 43.9997 9.84334 41.9527 10.0357 39.6199L10.5178 33.7745Z" fill="#322727"/>
<path d="M79.0119 39.8478C78.8369 42.6218 76.4463 44.7287 73.6723 44.5537C72.9423 44.5077 72.3878 43.8785 72.4339 43.1485L73.2081 30.8748C73.2608 30.0405 73.9797 29.4068 74.814 29.4595L75.4183 29.4976C77.7543 29.645 79.5285 31.6581 79.3812 33.9941L79.0119 39.8478Z" fill="#322727"/>
<path fill-rule="evenodd" clip-rule="evenodd" d="M5.94899 33.8267C7.81262 35.2995 10.5485 36.1754 14.5307 36.1754V37.689C10.3394 37.689 7.22892 36.7674 5.01051 35.0143C2.78598 33.2563 1.55999 30.7427 0.978936 27.7685C0.400031 24.8053 0.450229 21.3336 0.814683 17.5747C1.17958 13.8112 1.86558 9.70712 2.58375 5.47369L4.07604 5.72685C3.35628 9.96969 2.68003 14.0202 2.32124 17.7208C1.962 21.4259 1.92707 24.7276 2.46447 27.4783C2.99972 30.218 4.09147 32.3588 5.94899 33.8267Z" fill="#322727"/>
<path d="M7.56809 3.1786C7.56809 5.26847 5.87392 7.56809 3.78405 7.56809C1.69418 7.56809 0 5.87392 0 3.78405C0 1.69418 1.69418 0 3.78405 0C5.87392 0 7.56809 1.08873 7.56809 3.1786Z" fill="#36B37E"/>
<path fill-rule="evenodd" clip-rule="evenodd" d="M84.5652 35.3403C82.7015 36.8131 79.9657 37.689 75.9834 37.689V39.2026C80.1748 39.2026 83.2852 38.281 85.5037 36.5279C87.7282 34.7699 88.9542 32.2563 89.5352 29.2821C90.1141 26.3189 90.0639 22.8472 89.6995 19.0883C89.3346 15.3248 88.6486 11.2207 87.9304 6.98729L86.4381 7.24045C87.1579 11.4833 87.8341 15.5338 88.1929 19.2344C88.5522 22.9395 88.5871 26.2412 88.0497 28.9919C87.5144 31.7316 86.4227 33.8724 84.5652 35.3403Z" fill="#322727"/>
<path d="M82.9458 4.69229C82.9458 6.78216 84.64 9.08178 86.7299 9.08178C88.8197 9.08178 90.5139 7.3876 90.5139 5.29773C90.5139 3.20786 88.8197 1.51369 86.7299 1.51369C84.64 1.51369 82.9458 2.60241 82.9458 4.69229Z" fill="#36B37E"/>
<path d="M74.7723 38.6195C74.7723 55.673 60.8801 69.4977 43.7432 69.4977C26.6062 69.4977 12.714 55.673 12.714 38.6195C12.714 21.5659 26.6062 7.74122 43.7432 7.74122C61.4859 5.99315 76.1586 17.5653 74.7723 38.6195Z" fill="#36B37E"/>
<path d="M26.8311 29.8267C26.8944 28.6933 27.8645 27.8259 28.9979 27.8892C30.1312 27.9525 30.9987 28.9226 30.9354 30.056L30.5569 36.8327C30.4936 37.9661 29.5235 38.8336 28.3901 38.7703C27.2567 38.707 26.3892 37.7369 26.4525 36.6035L26.8311 29.8267Z" fill="#322727"/>
<path d="M43.6891 29.9059C43.7016 28.7708 44.6318 27.8607 45.7669 27.8732C46.902 27.8856 47.8121 28.8159 47.7997 29.951L47.7253 36.7379C47.7128 37.8729 46.7826 38.783 45.6475 38.7706C44.5124 38.7581 43.6023 37.8279 43.6148 36.6928L43.6891 29.9059Z" fill="#322727"/>
<path fill-rule="evenodd" clip-rule="evenodd" d="M33.2237 51.4362C33.4056 51.0599 33.8582 50.9023 34.2345 51.0843C35.3899 51.6429 36.1915 51.9028 36.946 51.9164C37.6871 51.9298 38.4766 51.7062 39.6 51.0997C39.9678 50.9011 40.4269 51.0383 40.6255 51.406C40.824 51.7738 40.6869 52.233 40.3191 52.4315C39.0779 53.1017 38.0225 53.4497 36.9186 53.4298C35.8282 53.4101 34.7848 53.0316 33.5756 52.447C33.1993 52.265 33.0418 51.8125 33.2237 51.4362Z" fill="#322727"/>
</svg>
