<svg width="91" height="152" viewBox="0 0 91 152" fill="none" xmlns="http://www.w3.org/2000/svg">
<path fill-rule="evenodd" clip-rule="evenodd" d="M10.6808 98.5856C13.8713 92.1648 17.9367 88.836 21.2451 88.0089L22.3465 92.4142C20.8113 92.7979 17.6113 94.8425 14.7473 100.606C11.9185 106.299 9.53548 115.427 9.53548 129.414H4.99463C4.99463 114.945 7.45515 105.077 10.6808 98.5856Z" fill="#322727"/>
<path fill-rule="evenodd" clip-rule="evenodd" d="M74.3906 94.4899C70.1954 88.6756 65.6414 86.0546 62.2424 85.7783L61.8745 90.3043C63.4516 90.4325 66.9423 91.9276 70.7083 97.1469C74.4279 102.302 78.2681 110.919 80.55 124.719L85.0301 123.978C82.6696 109.703 78.6321 100.368 74.3906 94.4899Z" fill="#322727"/>
<path d="M3.37522 133.152C0.985239 125.291 7.25127 122.566 9.18751 123.587C11.1237 124.608 9.89599 127.928 10.1794 129.665C10.4628 131.401 12.6844 133.267 12.8477 135.171C13.011 137.075 13.434 138.196 10.8762 139.355C8.31833 140.514 4.9672 138.388 3.37522 133.152Z" fill="#FF5630"/>
<path d="M87.4206 127.371C88.4961 119.225 81.8696 117.559 80.1258 118.882C78.3821 120.206 80.135 123.281 80.1387 125.04C80.1424 126.799 78.2549 129.002 78.4045 130.908C78.554 132.814 78.3194 133.988 81.0322 134.714C83.7449 135.441 86.7043 132.797 87.4206 127.371Z" fill="#FF5630"/>
<path d="M18.4666 76.1289L70.2323 72.9564V125.479C70.2323 139.774 58.6441 151.362 44.3494 151.362C30.0547 151.362 18.4666 139.774 18.4666 125.479V76.1289Z" fill="#FF5630"/>
<path d="M40.8698 104.688C39.4073 106.18 36.5878 106.637 35.0949 105.175C33.6021 103.712 33.5775 101.317 35.0401 99.8237C36.5026 98.3309 38.8984 98.3063 40.3912 99.7689C41.8841 101.231 42.3323 103.195 40.8698 104.688Z" fill="#322727"/>
<path d="M46.7396 99.9789C48.3576 98.6561 51.2103 98.5122 52.533 100.13C53.8558 101.748 53.6165 104.132 51.9985 105.455C50.3805 106.778 47.9965 106.538 46.6738 104.92C45.351 103.302 45.1216 101.302 46.7396 99.9789Z" fill="#322727"/>
<path d="M10.5177 33.7745C10.7462 31.0044 13.177 28.944 15.9471 29.1725C16.6761 29.2326 17.2183 29.8723 17.1582 30.6012L16.1474 42.8578C16.0786 43.6909 15.3476 44.3106 14.5144 44.2419L13.911 44.1921C11.5783 43.9997 9.84322 41.9527 10.0356 39.6199L10.5177 33.7745Z" fill="#322727"/>
<path d="M79.0119 39.8478C78.8369 42.6218 76.4463 44.7287 73.6723 44.5537C72.9423 44.5077 72.3878 43.8785 72.4339 43.1485L73.2081 30.8748C73.2608 30.0405 73.9797 29.4068 74.814 29.4595L75.4183 29.4976C77.7543 29.645 79.5285 31.6581 79.3812 33.9941L79.0119 39.8478Z" fill="#322727"/>
<path fill-rule="evenodd" clip-rule="evenodd" d="M5.94899 33.8267C7.81262 35.2995 10.5485 36.1754 14.5307 36.1754V37.689C10.3394 37.689 7.22892 36.7674 5.01051 35.0143C2.78598 33.2563 1.55999 30.7427 0.978936 27.7685C0.400031 24.8053 0.450229 21.3336 0.814683 17.5747C1.17958 13.8112 1.86558 9.70712 2.58375 5.47369L4.07604 5.72685C3.35628 9.96969 2.68003 14.0202 2.32124 17.7208C1.962 21.4259 1.92707 24.7276 2.46447 27.4783C2.99972 30.218 4.09147 32.3588 5.94899 33.8267Z" fill="#322727"/>
<path d="M7.56809 3.1786C7.56809 5.26847 5.87392 7.56809 3.78405 7.56809C1.69418 7.56809 0 5.87392 0 3.78405C0 1.69418 1.69418 0 3.78405 0C5.87392 0 7.56809 1.08873 7.56809 3.1786Z" fill="#FF5630"/>
<path fill-rule="evenodd" clip-rule="evenodd" d="M84.5652 35.3403C82.7015 36.8131 79.9657 37.689 75.9834 37.689V39.2026C80.1748 39.2026 83.2852 38.281 85.5037 36.5279C87.7282 34.7699 88.9542 32.2563 89.5352 29.2821C90.1141 26.3189 90.0639 22.8472 89.6995 19.0883C89.3346 15.3248 88.6486 11.2207 87.9304 6.98729L86.4381 7.24045C87.1579 11.4833 87.8341 15.5338 88.1929 19.2344C88.5522 22.9395 88.5871 26.2412 88.0497 28.9919C87.5144 31.7316 86.4227 33.8724 84.5652 35.3403Z" fill="#322727"/>
<path d="M82.9458 4.69229C82.9458 6.78216 84.64 9.08178 86.7299 9.08178C88.8197 9.08178 90.5139 7.3876 90.5139 5.29773C90.5139 3.20786 88.8197 1.51369 86.7299 1.51369C84.64 1.51369 82.9458 2.60241 82.9458 4.69229Z" fill="#FF5630"/>
<path d="M74.7725 38.6195C74.7725 55.673 60.8802 69.4977 43.7433 69.4977C26.6063 69.4977 12.7141 55.673 12.7141 38.6195C12.7141 21.5659 26.6063 7.74122 43.7433 7.74122C61.486 5.99315 76.1587 17.5653 74.7725 38.6195Z" fill="#FF5630"/>
<path d="M26.8309 29.8267C26.8942 28.6933 27.8643 27.8259 28.9977 27.8892C30.1311 27.9525 30.9986 28.9226 30.9353 30.056L30.5568 36.8327C30.4935 37.9661 29.5234 38.8336 28.39 38.7703C27.2566 38.707 26.3891 37.7369 26.4524 36.6035L26.8309 29.8267Z" fill="#322727"/>
<path d="M43.6891 29.9059C43.7016 28.7708 44.6318 27.8607 45.7669 27.8732C46.902 27.8856 47.8121 28.8159 47.7997 29.951L47.7253 36.7379C47.7128 37.8729 46.7826 38.783 45.6475 38.7706C44.5124 38.7581 43.6023 37.8279 43.6148 36.6928L43.6891 29.9059Z" fill="#322727"/>
</svg>
