<svg width="427" height="427" viewBox="0 0 427 427" fill="none" xmlns="http://www.w3.org/2000/svg">
<rect width="427" height="427" rx="213.5" fill="#FF8A00"/>
<path fill-rule="evenodd" clip-rule="evenodd" d="M233.165 115.565C233.165 123.326 228.866 130.083 222.519 133.584V146.292H241.391C274.796 146.292 301.876 173.372 301.876 206.777V217.422H312.521C317.866 217.422 322.199 221.755 322.199 227.1V258.069C322.199 263.413 317.866 267.746 312.521 267.746H301.876V280.327C301.876 289.681 294.293 297.263 284.94 297.263H140.259C130.906 297.263 123.323 289.681 123.323 280.327V267.746H112.678C107.333 267.746 103 263.413 103 258.069V227.1C103 221.755 107.333 217.422 112.678 217.422H123.323V206.777C123.323 173.372 150.403 146.292 183.808 146.292H202.196V133.308C196.116 129.736 192.034 123.127 192.034 115.565C192.034 104.207 201.242 95 212.6 95C223.957 95 233.165 104.207 233.165 115.565ZM180.891 191.962C180.891 186.529 185.295 182.125 190.728 182.125C196.16 182.125 200.564 186.529 200.564 191.962V224.444C200.564 229.877 196.16 234.281 190.728 234.281C185.295 234.281 180.891 229.877 180.891 224.444V191.962ZM253.761 182.085C248.329 182.085 243.925 186.489 243.925 191.922V224.404C243.925 229.837 248.329 234.241 253.761 234.241C259.194 234.241 263.598 229.837 263.598 224.404V191.922C263.598 186.489 259.194 182.085 253.761 182.085Z" fill="white"/>
</svg>
