<svg width="91" height="152" viewBox="0 0 91 152" fill="none" xmlns="http://www.w3.org/2000/svg">
<path d="M18.4668 76.1289L70.2325 72.9564V125.479C70.2325 139.774 58.6444 151.362 44.3497 151.362C30.055 151.362 18.4668 139.774 18.4668 125.479V76.1289Z" fill="#FF5630"/>
<path d="M46.87 104.688C45.4075 106.18 42.588 106.637 41.0952 105.175C39.6023 103.712 39.5778 101.317 41.0403 99.8237C42.5029 98.3309 44.8987 98.3063 46.3915 99.7689C47.8843 101.231 48.3326 103.195 46.87 104.688Z" fill="#322727"/>
<path d="M10.518 33.7745C10.7464 31.0044 13.1773 28.944 15.9474 29.1725C16.6764 29.2326 17.2186 29.8723 17.1585 30.6013L16.1476 42.8578C16.0789 43.6909 15.3478 44.3106 14.5147 44.2419L13.9113 44.1921C11.5786 43.9997 9.84347 41.9527 10.0359 39.62L10.518 33.7745Z" fill="#322727"/>
<path d="M79.0122 39.8477C78.8372 42.6218 76.4465 44.7287 73.6725 44.5537C72.9425 44.5076 72.3881 43.8785 72.4341 43.1485L73.2084 30.8748C73.261 30.0405 73.98 29.4068 74.8143 29.4594L75.4185 29.4976C77.7545 29.6449 79.5288 31.6581 79.3814 33.9941L79.0122 39.8477Z" fill="#322727"/>
<path fill-rule="evenodd" clip-rule="evenodd" d="M5.94923 33.8267C7.81286 35.2995 10.5487 36.1754 14.531 36.1754V37.689C10.3396 37.689 7.22917 36.7674 5.01075 35.0143C2.78622 33.2563 1.56023 30.7427 0.97918 27.7685C0.400275 24.8053 0.450473 21.3336 0.814927 17.5747C1.17982 13.8112 1.86582 9.70712 2.58399 5.47369L4.07629 5.72685C3.35652 9.96969 2.68027 14.0202 2.32148 17.7208C1.96225 21.4259 1.92731 24.7276 2.46471 27.4783C2.99997 30.218 4.09172 32.3588 5.94923 33.8267Z" fill="#322727"/>
<path d="M7.56809 3.1786C7.56809 5.26847 5.87392 7.56809 3.78405 7.56809C1.69418 7.56809 0 5.87392 0 3.78405C0 1.69418 1.69418 0 3.78405 0C5.87392 0 7.56809 1.08873 7.56809 3.1786Z" fill="#FF5630"/>
<rect x="17.771" y="7.33453" width="56.8316" height="56" rx="3" transform="rotate(3.51822 17.771 7.33453)" fill="#FF5630"/>
<path d="M26.8312 29.8267C26.8945 28.6933 27.8646 27.8259 28.998 27.8892C30.1314 27.9525 30.9988 28.9226 30.9355 30.056L30.557 36.8327C30.4937 37.9661 29.5236 38.8336 28.3902 38.7703C27.2568 38.7069 26.3894 37.7368 26.4527 36.6034L26.8312 29.8267Z" fill="#322727"/>
<path d="M43.6894 29.9059C43.7018 28.7708 44.6321 27.8607 45.7672 27.8732C46.9023 27.8856 47.8123 28.8159 47.7999 29.9509L47.7255 36.7378C47.7131 37.8729 46.7828 38.783 45.6477 38.7706C44.5127 38.7581 43.6026 37.8279 43.615 36.6928L43.6894 29.9059Z" fill="#322727"/>
<path fill-rule="evenodd" clip-rule="evenodd" d="M33.2236 51.4362C33.4055 51.0599 33.8581 50.9023 34.2344 51.0842C35.3897 51.6429 36.1914 51.9027 36.9459 51.9164C37.687 51.9298 38.4765 51.7062 39.5998 51.0997C39.9676 50.9011 40.4268 51.0382 40.6253 51.406C40.8239 51.7738 40.6868 52.2329 40.319 52.4315C39.0778 53.1017 38.0224 53.4497 36.9185 53.4298C35.828 53.41 34.7847 53.0316 33.5755 52.4469C33.1992 52.265 33.0416 51.8125 33.2236 51.4362Z" fill="#322727"/>
</svg>
