<svg width="91" height="152" viewBox="0 0 91 152" fill="none" xmlns="http://www.w3.org/2000/svg">
<path d="M18.4668 76.1289L70.2325 72.9564V125.479C70.2325 139.774 58.6444 151.362 44.3497 151.362C30.055 151.362 18.4668 139.774 18.4668 125.479V76.1289Z" fill="#00B8D9"/>
<path d="M40.5681 102.746C40.5681 104.836 38.8739 107.135 36.784 107.135C34.6942 107.135 33 105.441 33 103.351C33 101.261 34.6942 99.5672 36.784 99.5672C38.8739 99.5672 40.5681 100.656 40.5681 102.746Z" fill="#322727"/>
<path d="M49.0287 100.858C50.6467 99.5354 53.4994 99.3915 54.8221 101.01C56.1449 102.627 55.9055 105.011 54.2875 106.334C52.6695 107.657 50.2856 107.418 48.9629 105.8C47.6401 104.182 47.4107 102.181 49.0287 100.858Z" fill="#322727"/>
<path d="M10.518 33.7745C10.7464 31.0044 13.1773 28.944 15.9474 29.1725C16.6764 29.2326 17.2186 29.8723 17.1585 30.6013L16.1476 42.8578C16.0789 43.6909 15.3478 44.3106 14.5147 44.2419L13.9113 44.1921C11.5786 43.9997 9.84347 41.9527 10.0359 39.62L10.518 33.7745Z" fill="#322727"/>
<path d="M79.0122 39.8477C78.8372 42.6218 76.4465 44.7287 73.6725 44.5537C72.9425 44.5076 72.3881 43.8785 72.4341 43.1485L73.2084 30.8748C73.261 30.0405 73.98 29.4068 74.8143 29.4594L75.4185 29.4976C77.7545 29.6449 79.5288 31.6581 79.3814 33.9941L79.0122 39.8477Z" fill="#322727"/>
<path fill-rule="evenodd" clip-rule="evenodd" d="M84.5649 35.3403C82.7013 36.8131 79.9654 37.689 75.9832 37.689V39.2026C80.1745 39.2026 83.285 38.281 85.5034 36.5279C87.7279 34.7699 88.9539 32.2563 89.535 29.2821C90.1139 26.319 90.0637 22.8472 89.6992 19.0883C89.3343 15.3248 88.6483 11.2207 87.9302 6.9873L86.4379 7.24046C87.1576 11.4833 87.8339 15.5338 88.1927 19.2344C88.5519 22.9395 88.5868 26.2412 88.0494 28.9919C87.5142 31.7316 86.4224 33.8724 84.5649 35.3403Z" fill="#322727"/>
<path d="M82.9456 4.69227C82.9456 6.78214 84.6398 9.08176 86.7296 9.08176C88.8195 9.08176 90.5137 7.38759 90.5137 5.29772C90.5137 3.20785 88.8195 1.51367 86.7296 1.51367C84.6398 1.51367 82.9456 2.6024 82.9456 4.69227Z" fill="#00B8D9"/>
<path d="M74.7722 38.6194C74.7722 55.673 60.88 69.4977 43.743 69.4977C26.6061 69.4977 12.7139 55.673 12.7139 38.6194C12.7139 21.5659 26.6061 7.74121 43.743 7.74121C61.4857 5.99314 76.1584 17.5653 74.7722 38.6194Z" fill="#00B8D9"/>
<path d="M26.8312 29.8267C26.8945 28.6933 27.8646 27.8259 28.998 27.8892C30.1314 27.9525 30.9988 28.9226 30.9355 30.056L30.557 36.8327C30.4937 37.9661 29.5236 38.8336 28.3902 38.7703C27.2568 38.7069 26.3894 37.7368 26.4527 36.6034L26.8312 29.8267Z" fill="#322727"/>
<path d="M43.6894 29.9059C43.7018 28.7708 44.6321 27.8607 45.7672 27.8732C46.9023 27.8856 47.8123 28.8159 47.7999 29.9509L47.7255 36.7378C47.7131 37.8729 46.7828 38.783 45.6477 38.7706C44.5127 38.7581 43.6026 37.8279 43.615 36.6928L43.6894 29.9059Z" fill="#322727"/>
</svg>
