<svg width="91" height="152" viewBox="0 0 91 152" fill="none" xmlns="http://www.w3.org/2000/svg">
<path fill-rule="evenodd" clip-rule="evenodd" d="M10.6808 98.5857C13.8713 92.1648 17.9367 88.836 21.2451 88.0089L22.3465 92.4142C20.8113 92.798 17.6113 94.8425 14.7473 100.606C11.9185 106.299 9.53548 115.427 9.53548 129.414H4.99463C4.99463 114.945 7.45515 105.077 10.6808 98.5857Z" fill="#322727"/>
<path fill-rule="evenodd" clip-rule="evenodd" d="M74.3904 94.4899C70.1951 88.6756 65.6412 86.0546 62.2421 85.7783L61.8742 90.3042C63.4514 90.4324 66.9421 91.9275 70.708 97.1469C74.4277 102.302 78.2679 110.919 80.5498 124.719L85.0298 123.978C82.6694 109.703 78.6319 100.368 74.3904 94.4899Z" fill="#322727"/>
<path d="M3.37546 133.152C0.985483 125.291 7.25152 122.566 9.18775 123.587C11.124 124.608 9.89623 127.928 10.1796 129.665C10.463 131.401 12.6846 133.267 12.8479 135.171C13.0113 137.075 13.4343 138.196 10.8764 139.355C8.31857 140.514 4.96744 138.388 3.37546 133.152Z" fill="#00B8D9"/>
<path d="M87.4206 127.371C88.4961 119.225 81.8696 117.559 80.1258 118.883C78.3821 120.206 80.135 123.281 80.1387 125.04C80.1424 126.799 78.2549 129.002 78.4045 130.908C78.554 132.814 78.3194 133.988 81.0322 134.714C83.7449 135.441 86.7043 132.797 87.4206 127.371Z" fill="#00B8D9"/>
<path d="M18.4668 76.1289L70.2325 72.9564V125.479C70.2325 139.774 58.6444 151.362 44.3497 151.362C30.055 151.362 18.4668 139.774 18.4668 125.479V76.1289Z" fill="#00B8D9"/>
<path d="M36.3269 101.867C36.3269 103.956 34.6327 106.256 32.5428 106.256C30.453 106.256 28.7588 104.562 28.7588 102.472C28.7588 100.382 30.453 98.6879 32.5428 98.6879C34.6327 98.6879 36.3269 99.7767 36.3269 101.867Z" fill="#322727"/>
<path d="M46.87 104.688C45.4075 106.18 42.588 106.637 41.0952 105.175C39.6023 103.712 39.5778 101.317 41.0403 99.8237C42.5029 98.3309 44.8987 98.3063 46.3915 99.7689C47.8843 101.231 48.3326 103.195 46.87 104.688Z" fill="#322727"/>
<path d="M52.7396 99.9789C54.3576 98.6561 57.2103 98.5122 58.533 100.13C59.8558 101.748 59.6165 104.132 57.9985 105.455C56.3805 106.778 53.9965 106.538 52.6738 104.92C51.351 103.302 51.1216 101.302 52.7396 99.9789Z" fill="#322727"/>
<path fill-rule="evenodd" clip-rule="evenodd" d="M13.9492 36.8267C15.8129 38.2995 18.5487 39.1754 22.531 39.1754V40.689C18.3396 40.689 15.2292 39.7674 13.0107 38.0143C10.7862 36.2563 9.56023 33.7427 8.97918 30.7685C8.40027 27.8053 8.45047 24.3336 8.81493 20.5747C9.17982 16.8112 9.86582 12.7071 10.584 8.47369L12.0763 8.72685C11.3565 12.9697 10.6803 17.0202 10.3215 20.7208C9.96225 24.4259 9.92731 27.7276 10.4647 30.4783C11 33.218 12.0917 35.3588 13.9492 36.8267Z" fill="#322727"/>
<path d="M15.5681 6.1786C15.5681 8.26847 13.8739 10.5681 11.784 10.5681C9.69418 10.5681 8 8.87392 8 6.78405C8 4.69418 9.69418 3 11.784 3C13.8739 3 15.5681 4.08873 15.5681 6.1786Z" fill="#00B8D9"/>
<path fill-rule="evenodd" clip-rule="evenodd" d="M70.5649 35.3403C68.7013 36.8131 65.9654 37.689 61.9832 37.689V39.2026C66.1745 39.2026 69.285 38.281 71.5034 36.5279C73.7279 34.7699 74.9539 32.2563 75.535 29.2821C76.1139 26.319 76.0637 22.8472 75.6992 19.0883C75.3343 15.3248 74.6483 11.2207 73.9302 6.9873L72.4379 7.24046C73.1576 11.4833 73.8339 15.5338 74.1927 19.2344C74.5519 22.9395 74.5868 26.2412 74.0494 28.9919C73.5142 31.7316 72.4224 33.8724 70.5649 35.3403Z" fill="#322727"/>
<path d="M68.9456 4.69227C68.9456 6.78214 70.6398 9.08176 72.7296 9.08176C74.8195 9.08176 76.5137 7.38759 76.5137 5.29772C76.5137 3.20785 74.8195 1.51367 72.7296 1.51367C70.6398 1.51367 68.9456 2.6024 68.9456 4.69227Z" fill="#00B8D9"/>
<path d="M34.8855 3.58283C35.798 1.38949 38.7767 1.07654 40.1251 3.03235L76.2688 55.4548C77.5917 57.3735 76.3172 60.002 73.9915 60.1515L14.4442 63.9799C12.2254 64.1226 10.6278 61.8865 11.4819 59.8337L34.8855 3.58283Z" fill="#00B8D9"/>
<path d="M29.4933 33.0522C29.5566 31.9188 30.5267 31.0513 31.6601 31.1146C32.7935 31.1779 33.6609 32.148 33.5976 33.2814L33.2191 40.0582C33.1558 41.1916 32.1857 42.059 31.0523 41.9957C29.9189 41.9324 29.0515 40.9623 29.1148 39.8289L29.4933 33.0522Z" fill="#322727"/>
<path d="M44.3515 33.1314C44.3639 31.9963 45.2942 31.0862 46.4293 31.0986C47.5644 31.1111 48.4744 32.0413 48.462 33.1764L48.3876 39.9633C48.3752 41.0984 47.4449 42.0085 46.3099 41.996C45.1748 41.9836 44.2647 41.0533 44.2771 39.9183L44.3515 33.1314Z" fill="#322727"/>
<path fill-rule="evenodd" clip-rule="evenodd" d="M35.8857 50.6616C36.0676 50.2853 36.5202 50.1278 36.8965 50.3097C38.0519 50.8683 38.8535 51.1282 39.608 51.1418C40.3491 51.1552 41.1386 50.9317 42.262 50.3251C42.6297 50.1265 43.0889 50.2637 43.2875 50.6315C43.486 50.9993 43.3489 51.4584 42.9811 51.657C41.7399 52.3271 40.6845 52.6752 39.5806 52.6552C38.4901 52.6355 37.4468 52.257 36.2376 51.6724C35.8613 51.4905 35.7038 51.0379 35.8857 50.6616Z" fill="#322727"/>
</svg>
