<svg width="21" height="19" viewBox="0 0 21 19" fill="none" xmlns="http://www.w3.org/2000/svg">
<path fill-rule="evenodd" clip-rule="evenodd" d="M12.2273 1.93182C12.2273 2.66085 11.8234 3.29556 11.2273 3.62445V4.81818H13C16.138 4.81818 18.6818 7.36202 18.6818 10.5V11.5H19.6818C20.1839 11.5 20.5909 11.907 20.5909 12.4091V15.3182C20.5909 15.8203 20.1839 16.2273 19.6818 16.2273H18.6818V17.4091C18.6818 18.2877 17.9695 19 17.0909 19H3.5C2.62137 19 1.90909 18.2877 1.90909 17.4091V16.2273H0.909091C0.407014 16.2273 0 15.8203 0 15.3182V12.4091C0 11.907 0.407014 11.5 0.909091 11.5H1.90909V10.5C1.90909 7.36202 4.45293 4.81818 7.59091 4.81818H9.31818V3.59857C8.74703 3.26296 8.36364 2.64216 8.36364 1.93182C8.36364 0.864905 9.22854 0 10.2955 0C11.3624 0 12.2273 0.864905 12.2273 1.93182ZM7.31696 9.10839C7.31696 8.59807 7.73066 8.18437 8.24098 8.18437C8.7513 8.18437 9.16499 8.59807 9.16499 9.10839V12.1597C9.16499 12.67 8.7513 13.0837 8.24098 13.0837C7.73066 13.0837 7.31696 12.67 7.31696 12.1597V9.10839ZM14.1622 8.18057C13.6519 8.18057 13.2382 8.59426 13.2382 9.10458V12.1559C13.2382 12.6662 13.6519 13.0799 14.1622 13.0799C14.6725 13.0799 15.0862 12.6662 15.0862 12.1559V9.10458C15.0862 8.59426 14.6725 8.18057 14.1622 8.18057Z" fill="white"/>
</svg>
